PERFORMER "Baltazar Ortiz"
FILE "/home/baltazar/Music/Mixxx/Recordings/2016-05-12_21h58m12s.mp3" MP3 
  TRACK 01 AUDIO
    TITLE "3005 (SKULS RIP)"
    PERFORMER "Childish Gambino"
    INDEX 01 00:05:17
  TRACK 02 AUDIO
    TITLE "Donald Trump (DJ Intro - DJ Outro) (Explicit)"
    PERFORMER "Mac Miller"
    INDEX 01 03:48:08
  TRACK 03 AUDIO
    TITLE "New Americana (HAKT x 5HOW Bootleg)"
    PERFORMER "Halsey, HAKT x 5HOW"
    INDEX 01 06:27:49
  TRACK 04 AUDIO
    TITLE "Stereo Hearts"
    PERFORMER "Gym Class Heroes f. Adam Levin"
    INDEX 01 08:59:59
  TRACK 05 AUDIO
    TITLE "It Girl"
    PERFORMER "Jason Derulo"
    INDEX 01 12:10:49
  TRACK 06 AUDIO
    TITLE "Back In Black"
    PERFORMER "AC/DC"
    INDEX 01 15:06:54
  TRACK 07 AUDIO
    TITLE "Single Ladies (Put a Ring On It)"
    PERFORMER "Beyoncé"
    INDEX 01 18:42:46
  TRACK 08 AUDIO
    TITLE "Thrift Shop (DJ Intro - DJ Outro)"
    PERFORMER "Macklemore & Ryan Lewis f. Wanz"
    INDEX 01 21:43:42
  TRACK 09 AUDIO
    TITLE "Lean On (Club Killers Remix) (Intro - Clean)"
    PERFORMER "Major Lazer & DJ Snake ft MO"
    INDEX 01 25:30:12
  TRACK 10 AUDIO
    TITLE "Drop It Low (Caked Up Remix)"
    PERFORMER "Ester Dean"
    INDEX 01 28:40:56
  TRACK 11 AUDIO
    TITLE "Stronger"
    PERFORMER "Kanye West"
    INDEX 01 32:25:05
  TRACK 12 AUDIO
    TITLE "Cooking By The Book [Lil Jon Remix]"
    PERFORMER "LazyTown"
    INDEX 01 37:17:63
  TRACK 13 AUDIO
    TITLE "Wait (Au5 & IYFFE Remix)"
    PERFORMER "Adventure Club"
    INDEX 01 39:00:54
  TRACK 14 AUDIO
    TITLE "Run Away With Me"
    PERFORMER "Carly Rae Jepsen"
    INDEX 01 41:59:06
  TRACK 15 AUDIO
    TITLE "Cake By The Ocean"
    PERFORMER "DNCE"
    INDEX 01 45:42:38
  TRACK 16 AUDIO
    TITLE "Sugar"
    PERFORMER "Maroon 5"
    INDEX 01 49:14:42
  TRACK 17 AUDIO
    TITLE "Danger! High Voltage"
    PERFORMER "Electric Six"
    INDEX 01 51:12:27
  TRACK 18 AUDIO
    TITLE "Time Of Our Lives"
    PERFORMER "Pitbull Feat. Ne-Yo"
    INDEX 01 54:29:35
  TRACK 19 AUDIO
    TITLE "Let Me Love You (DJ Intro - DJ Outro)"
    PERFORMER "Ne-Yo"
    INDEX 01 58:01:52
  TRACK 20 AUDIO
    TITLE "Mr. Saxobeat"
    PERFORMER "Mr. Saxobeat"
    INDEX 01 61:33:41
  TRACK 21 AUDIO
    TITLE "I Cry"
    PERFORMER "Flo Rida"
    INDEX 01 64:39:04
  TRACK 22 AUDIO
    TITLE "Pound The Alarm"
    PERFORMER "Nicki Minaj"
    INDEX 01 68:04:60
  TRACK 23 AUDIO
    TITLE "Rifts of Clarity (3LAU Edit)"
    PERFORMER "Dirty South & Michael Brun feat. Foxes"
    INDEX 01 71:14:73
  TRACK 24 AUDIO
    TITLE "Save the World"
    PERFORMER "Swedish House Mafia"
    INDEX 01 75:07:38
  TRACK 25 AUDIO
    TITLE "Fun - We Are Young (Culture Code Remix)"
    PERFORMER "Fun"
    INDEX 01 78:18:60
  TRACK 26 AUDIO
    TITLE "Titanium feat. Sia (MEMO Bootleg)"
    PERFORMER "David Guetta"
    INDEX 01 82:19:45
  TRACK 27 AUDIO
    TITLE "Where Have You Been"
    PERFORMER "Rihanna"
    INDEX 01 86:02:48
  TRACK 28 AUDIO
    TITLE "I Fink U Freeky"
    PERFORMER "Die Antwoord"
    INDEX 01 89:26:19
  TRACK 29 AUDIO
    TITLE "Gangnam Style 212 (Ravine Mashup)"
    PERFORMER "PSY vs Organ Donors"
    INDEX 01 93:40:25
  TRACK 30 AUDIO
    TITLE "#SELFIE (Robot Dentist Remix)"
    PERFORMER "The Chainsmokers"
    INDEX 01 97:57:49
  TRACK 31 AUDIO
    TITLE "GDFR (feat. Sage the Gemini & Lookas)"
    PERFORMER "Flo Rida"
    INDEX 01 102:02:22
  TRACK 32 AUDIO
    TITLE "Beggars"
    PERFORMER "Krewella"
    INDEX 01 104:50:47
  TRACK 33 AUDIO
    TITLE "Because I Got High (Longopolus Remix)"
    PERFORMER "Afroman"
    INDEX 01 107:58:55
  TRACK 34 AUDIO
    TITLE "Harlem Shake"
    PERFORMER "Harlem Freaks"
    INDEX 01 112:23:17
  TRACK 35 AUDIO
    TITLE "Feel This Moment (Radio Edit)"
    PERFORMER "Pitbull f. Christina Aguilera"
    INDEX 01 114:57:02
  TRACK 36 AUDIO
    TITLE "Timber (feat. Ke$ha)"
    PERFORMER "Pitbull"
    INDEX 01 118:36:64
  TRACK 37 AUDIO
    TITLE "Sexy And I Know It"
    PERFORMER "LMFAO"
    INDEX 01 121:43:68
  TRACK 38 AUDIO
    TITLE "Animals ft. Kendrick Lamar (The White Panda Bootleg)"
    PERFORMER "Martin Garrix"
    INDEX 01 124:48:39
  TRACK 39 AUDIO
    TITLE "S&M"
    PERFORMER "Rihanna"
    INDEX 01 128:24:67
  TRACK 40 AUDIO
    TITLE "In The Dark (DJ Intro - DJ Outro)"
    PERFORMER "Dev"
    INDEX 01 132:05:44
  TRACK 41 AUDIO
    TITLE "The Bad Touch"
    PERFORMER "The Bloodhound Gang"
    INDEX 01 134:47:35
  TRACK 42 AUDIO
    TITLE "Fireball (feat. John Ryan)"
    PERFORMER "Pitbull"
    INDEX 01 137:46:27
  TRACK 43 AUDIO
    TITLE "Wild Ones (DJ Intro - DJ Outro)"
    PERFORMER "Flo Rida f. Sia"
    INDEX 01 140:53:32
  TRACK 44 AUDIO
    TITLE "Shake It Out (Benny Benassi remix)"
    PERFORMER "Florence + the Machine"
    INDEX 01 144:55:43
  TRACK 45 AUDIO
    TITLE "The Night Is Still Young"
    PERFORMER "Nicki Minaj"
    INDEX 01 148:44:16
  TRACK 46 AUDIO
    TITLE "We Run The Night"
    PERFORMER "Havana Brown f. Pitbull"
    INDEX 01 152:02:50
  TRACK 47 AUDIO
    TITLE "EC Fire Alarm (remix)"
    PERFORMER "Loren Sherman"
    INDEX 01 155:08:67
  TRACK 48 AUDIO
    TITLE "Everybody Got Time For That"
    PERFORMER "8Er$ X Kimfu"
    INDEX 01 156:22:61
  TRACK 49 AUDIO
    TITLE "Loca People (Kennedy Jones Trap Remix)"
    PERFORMER "Sak Noel"
    INDEX 01 159:10:70
  TRACK 50 AUDIO
    TITLE "Captivate The Light (Bruneaux & 3LAU Mix)"
    PERFORMER "Deadmau5 Feat. Mimi Page"
    INDEX 01 161:03:70
  TRACK 51 AUDIO
    TITLE "2B - 2A - Donald Trump"
    PERFORMER "Neon Hitch"
    INDEX 01 163:08:66
  TRACK 52 AUDIO
    TITLE "Marry The Night"
    PERFORMER "Lady GaGa"
    INDEX 01 166:46:63
  TRACK 53 AUDIO
    TITLE "Sweet Child O' Mine"
    PERFORMER "Guns N' Roses"
    INDEX 01 170:22:59
  TRACK 54 AUDIO
    TITLE "Don't Stop Believin'"
    PERFORMER "Journey"
    INDEX 01 175:54:22
